<mxfile host="app.diagrams.net" modified="2023-11-22T15:16:46.946Z" agent="Mozilla/5.0 (Windows NT 10.0; Win64; x64) AppleWebKit/537.36 (KHTML, like Gecko) Chrome/118.0.0.0 Safari/537.36 OPR/104.0.0.0" etag="6g8CA5ol0jMOM39G3XCb" version="22.1.3" type="device">
  <diagram name="Page-1" id="jdJEweuJxR3cGUlVuBCV">
    <mxGraphModel dx="1397" dy="1933" grid="1" gridSize="10" guides="1" tooltips="1" connect="1" arrows="1" fold="1" page="1" pageScale="1" pageWidth="827" pageHeight="1169" math="0" shadow="0">
      <root>
        <mxCell id="0" />
        <mxCell id="1" parent="0" />
        <mxCell id="tXt45MT2a8sGvXbUIiDo-1" value="" style="sketch=0;aspect=fixed;pointerEvents=1;shadow=0;dashed=0;html=1;strokeColor=none;labelPosition=center;verticalLabelPosition=bottom;verticalAlign=top;align=center;fillColor=#00188D;shape=mxgraph.mscae.enterprise.android_phone" vertex="1" parent="1">
          <mxGeometry x="60" y="400" width="72" height="120" as="geometry" />
        </mxCell>
        <mxCell id="tXt45MT2a8sGvXbUIiDo-3" value="" style="image;html=1;image=img/lib/clip_art/networking/Cloud_Computer_Private_128x128.png" vertex="1" parent="1">
          <mxGeometry x="100" y="5" width="140" height="120" as="geometry" />
        </mxCell>
        <mxCell id="tXt45MT2a8sGvXbUIiDo-4" value="" style="shape=image;verticalLabelPosition=bottom;labelBackgroundColor=default;verticalAlign=top;aspect=fixed;imageAspect=0;image=https://miro.medium.com/v2/resize:fit:772/0*mOWsEdIxNOf8ZJHF.png;" vertex="1" parent="1">
          <mxGeometry x="614.24" y="-10" width="141.51" height="101" as="geometry" />
        </mxCell>
        <mxCell id="tXt45MT2a8sGvXbUIiDo-5" value="" style="sketch=0;outlineConnect=0;fontColor=#232F3E;gradientColor=none;fillColor=#ED7100;strokeColor=none;dashed=0;verticalLabelPosition=bottom;verticalAlign=top;align=center;html=1;fontSize=12;fontStyle=0;aspect=fixed;pointerEvents=1;shape=mxgraph.aws4.p3_instance;" vertex="1" parent="1">
          <mxGeometry x="600" y="400" width="100" height="100" as="geometry" />
        </mxCell>
        <mxCell id="tXt45MT2a8sGvXbUIiDo-6" value="" style="endArrow=classic;startArrow=classic;html=1;rounded=0;entryX=0.25;entryY=1;entryDx=0;entryDy=0;" edge="1" parent="1" source="tXt45MT2a8sGvXbUIiDo-5" target="tXt45MT2a8sGvXbUIiDo-4">
          <mxGeometry width="50" height="50" relative="1" as="geometry">
            <mxPoint x="700" y="300" as="sourcePoint" />
            <mxPoint x="400" y="290" as="targetPoint" />
          </mxGeometry>
        </mxCell>
        <mxCell id="tXt45MT2a8sGvXbUIiDo-7" value="" style="endArrow=classic;startArrow=classic;html=1;rounded=0;entryX=0;entryY=0.75;entryDx=0;entryDy=0;exitX=1;exitY=0.5;exitDx=0;exitDy=0;" edge="1" parent="1" source="tXt45MT2a8sGvXbUIiDo-3" target="tXt45MT2a8sGvXbUIiDo-4">
          <mxGeometry width="50" height="50" relative="1" as="geometry">
            <mxPoint x="725" y="320" as="sourcePoint" />
            <mxPoint x="650" y="171" as="targetPoint" />
          </mxGeometry>
        </mxCell>
        <mxCell id="tXt45MT2a8sGvXbUIiDo-8" value="" style="endArrow=classic;startArrow=classic;html=1;rounded=0;entryX=0.5;entryY=0;entryDx=0;entryDy=0;exitX=0;exitY=0.5;exitDx=0;exitDy=0;entryPerimeter=0;" edge="1" parent="1" source="tXt45MT2a8sGvXbUIiDo-3" target="tXt45MT2a8sGvXbUIiDo-1">
          <mxGeometry width="50" height="50" relative="1" as="geometry">
            <mxPoint x="350" y="90" as="sourcePoint" />
            <mxPoint x="470" y="186" as="targetPoint" />
          </mxGeometry>
        </mxCell>
        <mxCell id="tXt45MT2a8sGvXbUIiDo-9" value="&lt;font style=&quot;font-size: 18px;&quot;&gt;API Request / Post to AWS&amp;nbsp;&lt;/font&gt;" style="text;html=1;strokeColor=none;fillColor=none;align=center;verticalAlign=middle;whiteSpace=wrap;rounded=0;rotation=-90;" vertex="1" parent="1">
          <mxGeometry x="20" y="180" width="160" height="90" as="geometry" />
        </mxCell>
        <mxCell id="tXt45MT2a8sGvXbUIiDo-10" value="&lt;font style=&quot;font-size: 18px;&quot;&gt;Bidirectional Channel between AWS and pubnub&lt;/font&gt;" style="text;html=1;strokeColor=none;fillColor=none;align=center;verticalAlign=middle;whiteSpace=wrap;rounded=0;rotation=0;" vertex="1" parent="1">
          <mxGeometry x="300" y="60" width="270" height="90" as="geometry" />
        </mxCell>
        <mxCell id="tXt45MT2a8sGvXbUIiDo-11" value="&lt;font style=&quot;font-size: 18px;&quot;&gt;Bidirectional Channel between PI &lt;br&gt;and pubnub&lt;/font&gt;" style="text;html=1;strokeColor=none;fillColor=none;align=center;verticalAlign=middle;whiteSpace=wrap;rounded=0;rotation=90;" vertex="1" parent="1">
          <mxGeometry x="557" y="210" width="270" height="90" as="geometry" />
        </mxCell>
        <mxCell id="tXt45MT2a8sGvXbUIiDo-12" value="&lt;font style=&quot;font-size: 18px;&quot;&gt;Android App&lt;br&gt;&lt;/font&gt;" style="text;html=1;strokeColor=none;fillColor=none;align=center;verticalAlign=middle;whiteSpace=wrap;rounded=0;rotation=0;" vertex="1" parent="1">
          <mxGeometry x="16" y="490" width="160" height="90" as="geometry" />
        </mxCell>
        <mxCell id="tXt45MT2a8sGvXbUIiDo-13" value="&lt;font style=&quot;font-size: 18px;&quot;&gt;SCAR (Raspberry Pi)&lt;br&gt;&lt;/font&gt;" style="text;html=1;strokeColor=none;fillColor=none;align=center;verticalAlign=middle;whiteSpace=wrap;rounded=0;rotation=0;" vertex="1" parent="1">
          <mxGeometry x="590" y="480" width="190" height="90" as="geometry" />
        </mxCell>
      </root>
    </mxGraphModel>
  </diagram>
</mxfile>
